<svg width="1536" height="728" viewBox="0 0 1536 728" fill="none" xmlns="http://www.w3.org/2000/svg">
<rect width="1535.69" height="728" fill="white"/>
<g clip-path="url(#clip0_92_1570)">
<path d="M303.617 397.124C302.729 407.332 303.95 416.321 307.28 424.088C310.61 431.86 315.716 437.904 322.599 442.231C329.477 446.559 337.803 448.723 347.575 448.723C356.451 448.723 364.059 446.951 370.386 443.397C376.713 439.849 381.653 434.963 385.205 428.749L425.167 447.724C421.615 456.602 416.009 464.369 408.35 471.027C400.69 477.685 391.643 482.845 381.209 486.507C370.771 490.169 359.341 492 346.909 492C327.594 492 310.829 487.731 296.624 479.183C282.415 470.643 271.426 459.158 263.655 444.728C255.881 430.303 252 414.323 252 396.791C252 379.258 256.048 362.395 264.155 348.187C272.258 333.987 283.189 322.776 296.957 314.564C310.721 306.357 326.262 302.247 343.579 302.247C358.009 302.247 370.771 304.526 381.875 309.072C392.976 313.621 402.355 320.005 410.015 328.213C417.674 336.425 423.502 345.912 427.498 356.676C431.494 367.444 433.492 379.147 433.492 391.797C433.492 395.352 433.326 398.844 432.993 402.283C432.66 405.727 432.045 408.664 431.161 411.105H294.959V374.486H402.855L379.211 391.797" fill="black"/>
<path d="M534.058 492C514.078 492 496.705 487.288 481.942 477.852C467.175 468.42 457.132 455.714 451.804 439.735L488.436 422.424C493.098 432.193 499.425 439.849 507.417 445.394C515.41 450.942 524.286 453.717 534.058 453.717C541.163 453.717 546.598 452.274 550.376 449.389C554.15 446.507 556.037 442.513 556.037 437.404C556.037 434.741 555.371 432.466 554.039 430.58C552.707 428.697 550.709 426.974 548.045 425.42C545.381 423.87 542.051 422.539 538.055 421.425L507.084 412.77C492.206 408.557 480.776 401.732 472.784 392.296C464.792 382.864 460.796 371.712 460.796 358.84C460.796 347.521 463.678 337.649 469.454 329.212C475.226 320.778 483.326 314.18 493.764 309.404C504.198 304.633 516.187 302.247 529.729 302.247C547.49 302.247 563.082 306.408 576.518 314.731C589.949 323.053 599.44 334.76 604.99 349.852L568.026 367.163C565.362 359.621 560.533 353.569 553.54 349.019C546.546 344.474 538.606 342.195 529.729 342.195C523.287 342.195 518.24 343.527 514.577 346.19C510.914 348.853 509.082 352.515 509.082 357.176C509.082 359.621 509.748 361.836 511.081 363.834C512.413 365.831 514.577 367.61 517.574 369.16C520.571 370.713 524.286 372.156 528.73 373.488L557.702 382.143C572.799 386.585 584.343 393.295 592.336 402.283C600.328 411.272 604.324 422.313 604.324 435.407C604.324 446.726 601.379 456.602 595.499 465.035C589.616 473.472 581.457 480.071 571.023 484.843C560.585 489.614 548.263 492 534.058 492Z" fill="black"/>
<path d="M721.878 490.003C699.899 490.003 682.856 484.066 670.76 472.192C658.657 460.323 652.611 443.73 652.611 422.424V349.519H621.974V306.242H623.639C632.963 306.242 640.123 303.912 645.118 299.251C650.113 294.59 652.611 287.599 652.611 278.278V264.962H702.563V306.242H745.189V349.519H702.563V419.095C702.563 425.309 703.673 430.469 705.893 434.575C708.11 438.684 711.554 441.732 716.217 443.73C720.879 445.727 726.651 446.726 733.533 446.726C735.084 446.726 736.863 446.615 738.861 446.393C740.86 446.174 742.969 445.949 745.189 445.727V488.005C741.859 488.449 738.081 488.889 733.866 489.337C729.648 489.781 725.652 490.003 721.878 490.003Z" fill="black"/>
<path d="M774.49 488.005V236H824.442V342.195L818.448 334.205C822.662 323.334 829.489 315.286 838.928 310.07C848.36 304.858 859.408 302.247 872.063 302.247C885.827 302.247 897.871 305.132 908.195 310.902C918.518 316.676 926.562 324.718 932.338 335.038C938.11 345.358 940.997 357.397 940.997 371.157V488.005H891.045V381.81C891.045 374.708 889.653 368.609 886.882 363.501C884.103 358.396 880.222 354.401 875.226 351.516C870.231 348.635 864.404 347.189 857.743 347.189C851.083 347.189 845.529 348.635 840.427 351.516C835.317 354.401 831.376 358.396 828.605 363.501C825.826 368.609 824.442 374.708 824.442 381.81V488.005H774.49Z" fill="black"/>
<path d="M1018.26 397.124C1017.36 407.332 1018.59 416.321 1021.92 424.088C1025.25 431.86 1030.36 437.904 1037.24 442.231C1044.12 446.559 1052.44 448.723 1062.21 448.723C1071.09 448.723 1078.7 446.951 1085.02 443.397C1091.35 439.849 1096.29 434.963 1099.84 428.749L1139.81 447.724C1136.25 456.602 1130.65 464.369 1122.99 471.027C1115.33 477.685 1106.28 482.845 1095.85 486.507C1085.41 490.169 1073.98 492 1061.55 492C1042.23 492 1025.47 487.731 1011.26 479.183C997.054 470.643 986.064 459.158 978.294 444.728C970.52 430.303 966.639 414.323 966.639 396.791C966.639 379.258 970.687 362.395 978.794 348.187C986.897 333.987 997.827 322.776 1011.6 314.564C1025.36 306.357 1040.9 302.247 1058.22 302.247C1072.65 302.247 1085.41 304.526 1096.51 309.072C1107.61 313.621 1116.99 320.005 1124.65 328.213C1132.31 336.425 1138.14 345.912 1142.14 356.676C1146.13 367.444 1148.13 379.147 1148.13 391.797C1148.13 395.352 1147.96 398.844 1147.63 402.283C1147.3 405.727 1146.68 408.664 1145.8 411.105H1009.6V374.486H1117.49L1093.85 391.797" fill="black"/>
<path d="M1177.44 488.005V306.242H1224.06V349.852L1220.73 343.527C1224.72 328.213 1231.33 317.842 1240.54 312.401C1249.75 306.963 1260.69 304.245 1273.34 304.245H1284V347.521H1268.35C1256.14 347.521 1246.25 351.239 1238.71 358.674C1231.16 366.112 1227.39 376.598 1227.39 390.133V488.005H1177.44Z" fill="black"/>
</g>
<defs>
<clipPath id="clip0_92_1570">
<rect width="1032" height="256" fill="white" transform="translate(252 236)"/>
</clipPath>
</defs>
</svg>
