<svg width="374" height="374" viewBox="0 0 374 374" fill="none" xmlns="http://www.w3.org/2000/svg">
<circle cx="187" cy="187" r="187" fill="black"/>
<g clip-path="url(#clip0_105_1680)">
<path d="M39.4055 196.981C39.1226 200.211 39.5124 203.055 40.5704 205.513C41.6285 207.971 43.2523 209.884 45.4397 211.254C47.6271 212.624 50.2712 213.309 53.3785 213.309C56.2007 213.309 58.6176 212.749 60.629 211.625C62.6404 210.503 64.2086 208.956 65.3379 206.989L78.039 212.992C76.9097 215.801 75.1277 218.259 72.6931 220.365C70.2584 222.471 67.3827 224.105 64.066 225.264C60.7493 226.424 57.1162 227.002 53.1647 227.002C47.0257 227.002 41.6975 225.65 37.1824 222.948C32.6651 220.246 29.1724 216.612 26.7043 212.046C24.234 207.479 23 202.423 23 196.874C23 191.326 24.2875 185.99 26.8625 181.497C29.4374 177.003 32.9123 173.457 37.2871 170.859C41.6619 168.261 46.6002 166.962 52.1044 166.962C56.6908 166.962 60.747 167.682 64.2754 169.121C67.8037 170.562 70.7841 172.581 73.2187 175.177C75.6534 177.775 77.5044 180.779 78.7763 184.183C80.046 187.591 80.6808 191.293 80.6808 195.296C80.6808 196.42 80.6274 197.526 80.5227 198.615C80.4158 199.705 80.222 200.634 79.9413 201.405H36.6545V189.818H70.9467L63.4312 195.296" fill="white"/>
<path d="M112.647 227C106.297 227 100.775 225.508 96.0838 222.524C91.3905 219.541 88.1985 215.519 86.5056 210.463L98.1487 204.985C99.63 208.076 101.641 210.499 104.181 212.254C106.72 214.01 109.542 214.888 112.647 214.888C114.904 214.888 116.632 214.431 117.833 213.518C119.031 212.607 119.633 211.343 119.633 209.725C119.633 208.883 119.421 208.162 118.998 207.566C118.575 206.969 117.94 206.424 117.093 205.932C116.247 205.442 115.189 205.021 113.919 204.668L104.076 201.931C99.3471 200.599 95.7141 198.439 93.1747 195.453C90.6354 192.47 89.3635 188.941 89.3635 184.868C89.3635 181.286 90.279 178.163 92.1144 175.494C93.9477 172.825 96.5226 170.737 99.8416 169.227C103.158 167.717 106.967 166.962 111.273 166.962C116.918 166.962 121.874 168.278 126.144 170.912C130.412 173.545 133.428 177.25 135.194 182.024L123.446 187.502C122.6 185.115 121.065 183.201 118.842 181.761C116.619 180.322 114.095 179.601 111.275 179.601C109.228 179.601 107.624 180.023 106.459 180.865C105.294 181.707 104.713 182.867 104.713 184.341C104.713 185.115 104.925 185.815 105.348 186.447C105.771 187.079 106.459 187.642 107.413 188.132C108.366 188.624 109.547 189.08 110.959 189.501L120.167 192.239C124.965 193.645 128.634 195.768 131.176 198.612C133.715 201.456 134.987 204.95 134.987 209.093C134.987 212.675 134.051 215.799 132.183 218.468C130.311 221.137 127.719 223.225 124.404 224.734C121.087 226.244 117.171 227 112.656 227H112.647Z" fill="white"/>
<path d="M172.342 226.368C165.357 226.368 159.939 224.491 156.095 220.733C152.248 216.978 150.325 211.727 150.325 204.985V181.918H140.589V168.225H141.119C144.082 168.225 146.358 167.487 147.947 166.013C149.535 164.539 150.328 162.326 150.328 159.376V155.162H166.203V168.223H179.751V181.916H166.203V203.93C166.203 205.897 166.555 207.53 167.261 208.827C167.965 210.128 169.061 211.093 170.542 211.724C172.023 212.356 173.859 212.673 176.046 212.673C176.539 212.673 177.104 212.638 177.739 212.567C178.374 212.498 179.044 212.427 179.751 212.356V225.734C178.693 225.874 177.492 226.014 176.151 226.155C174.81 226.295 173.54 226.366 172.34 226.366L172.342 226.368Z" fill="white"/>
<path d="M188.458 225.736V146H204.333V179.601L202.429 177.074C203.767 173.634 205.939 171.089 208.937 169.438C211.935 167.788 215.446 166.962 219.469 166.962C223.844 166.962 227.673 167.875 230.954 169.699C234.235 171.526 236.792 174.071 238.627 177.336C240.461 180.601 241.378 184.412 241.378 188.763V225.734H225.503V192.133C225.503 189.887 225.062 187.956 224.18 186.34C223.298 184.727 222.064 183.461 220.476 182.548C218.887 181.636 217.036 181.178 214.918 181.178C212.8 181.178 211.036 181.634 209.414 182.548C207.79 183.461 206.538 184.724 205.656 186.34C204.774 187.956 204.333 189.887 204.333 192.133V225.734H188.458V225.736Z" fill="white"/>
<path d="M266.54 196.981C266.257 200.211 266.645 203.055 267.705 205.513C268.763 207.971 270.387 209.884 272.575 211.254C274.762 212.624 277.406 213.309 280.513 213.309C283.335 213.309 285.752 212.749 287.764 211.625C289.775 210.503 291.343 208.956 292.473 206.989L305.174 212.992C304.044 215.801 302.262 218.259 299.828 220.365C297.393 222.471 294.517 224.105 291.201 225.264C287.884 226.424 284.249 227.002 280.299 227.002C274.16 227.002 268.832 225.65 264.317 222.948C259.8 220.246 256.307 216.612 253.839 212.046C251.369 207.482 250.135 202.425 250.135 196.879C250.135 191.333 251.422 185.995 253.997 181.501C256.572 177.008 260.047 173.461 264.422 170.863C268.797 168.265 273.735 166.966 279.239 166.966C283.826 166.966 287.882 167.686 291.41 169.125C294.938 170.566 297.919 172.585 300.354 175.181C302.788 177.779 304.639 180.783 305.911 184.188C307.181 187.595 307.816 191.297 307.816 195.3C307.816 196.424 307.762 197.531 307.657 198.619C307.553 199.71 307.357 200.638 307.076 201.41H263.787V189.823H298.079L290.564 195.3" fill="white"/>
<path d="M317.131 225.736V168.225H331.948V182.024L330.89 180.023C332.16 175.177 334.258 171.896 337.187 170.174C340.114 168.453 343.591 167.593 347.612 167.593H351V181.286H346.026C342.144 181.286 339.005 182.463 336.606 184.815C334.207 187.169 333.006 190.486 333.006 194.768V225.736H317.131Z" fill="white"/>
</g>
<defs>
<clipPath id="clip0_105_1680">
<rect width="328" height="81" fill="white" transform="translate(23 146)"/>
</clipPath>
</defs>
</svg>
