<svg width="500" height="650" viewBox="0 0 500 650" fill="none" xmlns="http://www.w3.org/2000/svg">
<rect width="500" height="650" fill="white"/>
<g clip-path="url(#clip0_101_1672)">
<path d="M11 387.971V262.029H37.1525V365.15H90.3011V387.971H11Z" fill="#3C3D22"/>
<path d="M162.853 390C153.405 390 144.631 388.364 136.532 385.098C128.433 381.831 121.372 377.237 115.357 371.32C109.338 365.403 104.643 358.502 101.268 350.611C97.8938 342.725 96.2065 334.158 96.2065 324.915C96.2065 315.673 97.8643 307.11 101.184 299.22C104.499 291.334 109.169 284.457 115.188 278.596C121.203 272.738 128.264 268.174 136.363 264.902C144.462 261.636 153.291 260 162.853 260C172.416 260 181.244 261.636 189.343 264.902C197.442 268.174 204.499 272.738 210.518 278.596C216.533 284.457 221.203 291.334 224.522 299.22C227.838 307.11 229.5 315.677 229.5 324.915C229.5 334.154 227.813 342.725 224.438 350.611C221.064 358.502 216.365 365.403 210.35 371.32C204.33 377.237 197.273 381.831 189.174 385.098C181.076 388.364 172.302 390 162.853 390Z" fill="#A69D8A"/>
<path d="M310.994 390C301.546 390 292.772 388.364 284.673 385.098C276.574 381.831 269.513 377.237 263.498 371.32C257.479 365.403 252.784 358.502 249.409 350.611C246.035 342.725 244.348 334.158 244.348 324.915C244.348 315.673 246.005 307.11 249.325 299.22C252.641 291.334 257.31 284.457 263.329 278.596C269.344 272.738 276.406 268.174 284.504 264.902C292.603 261.636 301.432 260 310.994 260C320.557 260 329.385 261.636 337.484 264.902C345.583 268.174 352.64 272.738 358.659 278.596C364.674 284.457 369.344 291.334 372.664 299.22C375.979 307.11 377.641 315.677 377.641 324.915C377.641 334.154 375.954 342.725 372.579 350.611C369.205 358.502 364.506 365.403 358.491 371.32C352.471 377.237 345.414 381.831 337.316 385.098C329.217 388.364 320.443 390 310.994 390Z" fill="#A69D8A"/>
<path d="M396.201 387.971V262.029H444.456C453.116 262.029 460.793 263.55 467.488 266.593C474.178 269.636 479.438 274.145 483.263 280.117C487.085 286.093 489 293.472 489 302.263C489 311.053 487.06 318.098 483.179 324.07C479.298 330.046 474.009 334.581 467.319 337.679C460.625 340.781 453.002 342.328 444.456 342.328H422.353V387.971H396.201Z" fill="#3C3D22"/>
</g>
<defs>
<clipPath id="clip0_101_1672">
<rect width="478" height="130" fill="white" transform="translate(11 260)"/>
</clipPath>
</defs>
</svg>
