<svg width="500" height="650" viewBox="0 0 500 650" fill="none" xmlns="http://www.w3.org/2000/svg">
<g clip-path="url(#clip0_117_1698)">
<path d="M500 0H0V650H500V0Z" fill="white"/>
<mask id="mask0_117_1698" style="mask-type:luminance" maskUnits="userSpaceOnUse" x="57" y="273" width="387" height="105">
<path d="M443.077 273H57V378H443.077V273Z" fill="white"/>
</mask>
<g mask="url(#mask0_117_1698)">
<path d="M57 376.361V274.639H78.1232V357.929H121.051V376.361H57Z" fill="#3C3D22"/>
<path d="M179.65 378C172.019 378 164.933 376.679 158.391 374.041C151.85 371.402 146.147 367.691 141.288 362.912C136.427 358.133 132.635 352.559 129.909 346.186C127.183 339.816 125.821 332.897 125.821 325.431C125.821 317.967 127.16 311.05 129.841 304.678C132.518 298.308 136.29 292.754 141.152 288.02C146.01 283.288 151.713 279.602 158.255 276.959C164.796 274.321 171.927 273 179.65 273C187.374 273 194.505 274.321 201.046 276.959C207.588 279.602 213.288 283.288 218.149 288.02C223.007 292.754 226.779 298.308 229.46 304.678C232.138 311.05 233.481 317.97 233.481 325.431C233.481 332.894 232.118 339.816 229.392 346.186C226.667 352.559 222.872 358.133 218.013 362.912C213.151 367.691 207.451 371.402 200.91 374.041C194.369 376.679 187.282 378 179.65 378Z" fill="#A69D8A"/>
<path d="M299.303 378C291.672 378 284.585 376.679 278.044 374.041C271.502 371.402 265.799 367.691 260.941 362.912C256.079 358.133 252.287 352.559 249.561 346.186C246.836 339.816 245.473 332.897 245.473 325.431C245.473 317.967 246.812 311.05 249.493 304.678C252.172 298.308 255.943 292.754 260.804 288.02C265.662 283.288 271.366 279.602 277.907 276.959C284.449 274.321 291.58 273 299.303 273C307.027 273 314.157 274.321 320.699 276.959C327.24 279.602 332.94 283.288 337.801 288.02C342.66 292.754 346.432 298.308 349.113 304.678C351.791 311.05 353.133 317.97 353.133 325.431C353.133 332.894 351.771 339.816 349.045 346.186C346.319 352.559 342.524 358.133 337.666 362.912C332.803 367.691 327.104 371.402 320.563 374.041C314.021 376.679 306.935 378 299.303 378Z" fill="#A69D8A"/>
<path d="M368.124 376.361V274.639H407.099C414.093 274.639 420.294 275.867 425.702 278.325C431.105 280.783 435.353 284.425 438.443 289.248C441.53 294.075 443.077 300.035 443.077 307.135C443.077 314.235 441.51 319.925 438.375 324.749C435.24 329.575 430.968 333.238 425.565 335.741C420.158 338.246 414.001 339.496 407.099 339.496H389.246V376.361H368.124Z" fill="#3C3D22"/>
</g>
</g>
<defs>
<clipPath id="clip0_117_1698">
<rect width="500" height="650" fill="white"/>
</clipPath>
</defs>
</svg>
