<svg width="428" height="428" viewBox="0 0 428 428" fill="none" xmlns="http://www.w3.org/2000/svg">
<rect width="428" height="428" fill="black"/>
<path fill-rule="evenodd" clip-rule="evenodd" d="M223.051 127.124H189.309C189.856 132.5 191.102 134.272 195.817 134.133H209.399L209.399 156.189H209.354C198.57 155.732 196.078 158.908 195.949 168.732V188.638H195.952L209.398 196.178V196.194L216.415 200.112L216.42 200.115V192.098L216.415 192.095V163.001C228.403 162.953 232.457 161.285 235.687 156.235C239.452 150.621 239.915 141.202 235.716 134.133C232.745 130.185 230.022 127.366 223.051 127.124ZM222.415 156.189C235.728 155.744 236.254 134.133 222 134.133H216.415V156.189H222.415ZM209.399 163.002H209.354C204.628 162.985 203.193 164.001 202.965 168.732V184.535L209.398 188.151L209.399 163.002Z" fill="white"/>
<path d="M92.1028 263.115V223.936H109.728C111.524 223.936 113.133 224.235 114.555 224.834C116.015 225.395 117.25 226.218 118.26 227.304C119.27 228.351 120.037 229.624 120.561 231.12C121.085 232.617 121.347 234.264 121.347 236.06C121.347 237.894 121.085 239.559 120.561 241.056C120.037 242.515 119.27 243.787 118.26 244.873C117.25 245.92 116.015 246.744 114.555 247.342C113.133 247.904 111.524 248.184 109.728 248.184H99.5121V263.115H92.1028ZM99.5121 241.785H109.054C110.476 241.785 111.599 241.411 112.422 240.663C113.245 239.877 113.657 238.773 113.657 237.351V234.769C113.657 233.347 113.245 232.262 112.422 231.513C111.599 230.765 110.476 230.391 109.054 230.391H99.5121V241.785ZM134.642 263.115V233.815H141.827V239.877H142.108C142.295 239.091 142.575 238.343 142.95 237.632C143.361 236.883 143.885 236.228 144.521 235.667C145.158 235.106 145.906 234.657 146.767 234.32C147.665 233.983 148.694 233.815 149.854 233.815H151.425V240.607H149.18C146.748 240.607 144.914 240.962 143.679 241.673C142.444 242.384 141.827 243.544 141.827 245.153V263.115H134.642ZM175.601 263.789C173.505 263.789 171.616 263.433 169.932 262.722C168.285 262.011 166.863 260.982 165.666 259.635C164.506 258.288 163.608 256.679 162.971 254.808C162.335 252.899 162.017 250.766 162.017 248.409C162.017 246.051 162.335 243.937 162.971 242.066C163.608 240.195 164.506 238.605 165.666 237.295C166.863 235.948 168.285 234.919 169.932 234.208C171.616 233.497 173.505 233.141 175.601 233.141C177.696 233.141 179.586 233.497 181.27 234.208C182.954 234.919 184.376 235.948 185.536 237.295C186.734 238.605 187.65 240.195 188.287 242.066C188.923 243.937 189.241 246.051 189.241 248.409C189.241 250.766 188.923 252.899 188.287 254.808C187.65 256.679 186.734 258.288 185.536 259.635C184.376 260.982 182.954 262.011 181.27 262.722C179.586 263.433 177.696 263.789 175.601 263.789ZM175.601 258.007C177.509 258.007 179.006 257.427 180.091 256.267C181.177 255.107 181.719 253.405 181.719 251.159V245.715C181.719 243.507 181.177 241.823 180.091 240.663C179.006 239.503 177.509 238.923 175.601 238.923C173.73 238.923 172.252 239.503 171.167 240.663C170.081 241.823 169.539 243.507 169.539 245.715V251.159C169.539 253.405 170.081 255.107 171.167 256.267C172.252 257.427 173.73 258.007 175.601 258.007ZM215.29 230.503V263.115H207.88V230.503H196.766V223.936H226.404V230.503H215.29ZM247.77 263.789C245.599 263.789 243.653 263.433 241.932 262.722C240.248 261.974 238.807 260.945 237.61 259.635C236.45 258.288 235.552 256.679 234.916 254.808C234.28 252.899 233.961 250.766 233.961 248.409C233.961 246.089 234.261 243.993 234.86 242.122C235.496 240.251 236.394 238.661 237.554 237.351C238.714 236.004 240.136 234.975 241.82 234.264C243.504 233.515 245.412 233.141 247.545 233.141C249.828 233.141 251.811 233.534 253.495 234.32C255.179 235.106 256.564 236.172 257.649 237.519C258.734 238.867 259.539 240.438 260.062 242.234C260.624 243.993 260.904 245.883 260.904 247.904V250.261H241.427V250.991C241.427 253.124 242.026 254.845 243.223 256.155C244.421 257.427 246.198 258.063 248.556 258.063C250.352 258.063 251.811 257.689 252.934 256.941C254.094 256.192 255.123 255.238 256.021 254.078L259.894 258.4C258.697 260.084 257.05 261.413 254.955 262.386C252.896 263.321 250.501 263.789 247.77 263.789ZM247.658 238.53C245.749 238.53 244.233 239.166 243.111 240.438C241.988 241.711 241.427 243.357 241.427 245.378V245.827H253.439V245.322C253.439 243.301 252.934 241.673 251.923 240.438C250.951 239.166 249.529 238.53 247.658 238.53ZM286.367 263.789C284.196 263.789 282.269 263.433 280.585 262.722C278.901 262.011 277.479 260.982 276.319 259.635C275.196 258.288 274.336 256.679 273.737 254.808C273.138 252.899 272.839 250.766 272.839 248.409C272.839 246.051 273.138 243.937 273.737 242.066C274.336 240.195 275.196 238.605 276.319 237.295C277.479 235.948 278.901 234.919 280.585 234.208C282.269 233.497 284.196 233.141 286.367 233.141C289.323 233.141 291.755 233.796 293.664 235.106C295.609 236.416 297.013 238.23 297.873 240.551L291.98 243.189C291.643 241.954 291.007 240.943 290.071 240.158C289.173 239.334 287.938 238.923 286.367 238.923C284.346 238.923 282.83 239.559 281.82 240.831C280.847 242.103 280.36 243.769 280.36 245.827V251.159C280.36 253.217 280.847 254.883 281.82 256.155C282.83 257.39 284.346 258.007 286.367 258.007C288.088 258.007 289.416 257.577 290.352 256.716C291.287 255.818 292.017 254.714 292.541 253.405L298.042 256.043C297.069 258.625 295.591 260.571 293.607 261.88C291.624 263.153 289.21 263.789 286.367 263.789ZM311.159 221.578H318.344V238.698H318.625C319.224 237.127 320.159 235.817 321.431 234.769C322.741 233.684 324.537 233.141 326.82 233.141C329.851 233.141 332.171 234.133 333.78 236.116C335.389 238.099 336.194 240.925 336.194 244.592V263.115H329.009V245.322C329.009 243.226 328.635 241.654 327.886 240.607C327.138 239.559 325.903 239.035 324.182 239.035C323.433 239.035 322.704 239.147 321.993 239.372C321.319 239.559 320.702 239.858 320.14 240.27C319.616 240.644 319.186 241.131 318.849 241.729C318.513 242.291 318.344 242.964 318.344 243.75V263.115H311.159V221.578Z" fill="white"/>
<path d="M140.766 297.428L139.099 299.28V303.204H137.684V291.45H139.099V297.697H139.149L140.833 295.66L144.386 291.45H146.121L141.743 296.485L146.424 303.204H144.673L140.766 297.428ZM154.587 303.204V291.45H161.761V292.696H156.002V296.636H161.424V297.882H156.002V301.958H161.761V303.204H154.587ZM170.635 303.204V291.45H177.809V292.696H172.05V296.636H177.472V297.882H172.05V301.958H177.809V303.204H170.635ZM186.683 303.204V291.45H191.365C192.42 291.45 193.228 291.753 193.79 292.359C194.362 292.954 194.648 293.774 194.648 294.818C194.648 295.862 194.362 296.687 193.79 297.293C193.228 297.888 192.42 298.185 191.365 298.185H188.098V303.204H186.683ZM188.098 296.939H191.365C191.926 296.939 192.358 296.793 192.661 296.502C192.976 296.21 193.133 295.794 193.133 295.255V294.38C193.133 293.841 192.976 293.426 192.661 293.134C192.358 292.842 191.926 292.696 191.365 292.696H188.098V296.939ZM217.479 303.406C215.986 303.406 214.824 302.901 213.993 301.89C213.162 300.869 212.747 299.37 212.747 297.394C212.747 295.418 213.162 293.903 213.993 292.847C214.824 291.781 215.986 291.248 217.479 291.248C218.467 291.248 219.292 291.472 219.954 291.921C220.628 292.37 221.15 293.005 221.52 293.824L220.375 294.515C220.139 293.908 219.78 293.426 219.297 293.066C218.815 292.696 218.208 292.511 217.479 292.511C216.974 292.511 216.519 292.606 216.115 292.797C215.722 292.988 215.385 293.263 215.104 293.622C214.835 293.97 214.627 294.391 214.481 294.885C214.335 295.368 214.262 295.912 214.262 296.518V298.27C214.262 299.482 214.543 300.431 215.104 301.116C215.666 301.8 216.457 302.143 217.479 302.143C218.231 302.143 218.86 301.952 219.365 301.57C219.87 301.177 220.24 300.661 220.476 300.021L221.604 300.728C221.234 301.559 220.701 302.216 220.005 302.698C219.309 303.17 218.467 303.406 217.479 303.406ZM234.207 303.406C233.444 303.406 232.753 303.277 232.136 303.018C231.529 302.749 231.007 302.362 230.57 301.856C230.143 301.34 229.812 300.706 229.576 299.954C229.34 299.19 229.223 298.315 229.223 297.327C229.223 296.339 229.34 295.469 229.576 294.717C229.812 293.964 230.143 293.33 230.57 292.814C231.007 292.297 231.529 291.91 232.136 291.652C232.753 291.382 233.444 291.248 234.207 291.248C234.959 291.248 235.644 291.382 236.261 291.652C236.879 291.91 237.401 292.297 237.827 292.814C238.265 293.33 238.602 293.964 238.838 294.717C239.074 295.469 239.191 296.339 239.191 297.327C239.191 298.315 239.074 299.19 238.838 299.954C238.602 300.706 238.265 301.34 237.827 301.856C237.401 302.362 236.879 302.749 236.261 303.018C235.644 303.277 234.959 303.406 234.207 303.406ZM234.207 302.143C234.712 302.143 235.178 302.053 235.605 301.873C236.031 301.694 236.396 301.435 236.699 301.099C237.014 300.762 237.255 300.358 237.423 299.886C237.592 299.415 237.676 298.887 237.676 298.303V296.35C237.676 295.766 237.592 295.239 237.423 294.767C237.255 294.296 237.014 293.891 236.699 293.555C236.396 293.218 236.031 292.96 235.605 292.78C235.178 292.6 234.712 292.511 234.207 292.511C233.702 292.511 233.236 292.6 232.809 292.78C232.383 292.96 232.012 293.218 231.698 293.555C231.395 293.891 231.159 294.296 230.991 294.767C230.822 295.239 230.738 295.766 230.738 296.35V298.303C230.738 298.887 230.822 299.415 230.991 299.886C231.159 300.358 231.395 300.762 231.698 301.099C232.012 301.435 232.383 301.694 232.809 301.873C233.236 302.053 233.702 302.143 234.207 302.143ZM252.36 303.406C251.597 303.406 250.906 303.277 250.289 303.018C249.682 302.749 249.16 302.362 248.723 301.856C248.296 301.34 247.965 300.706 247.729 299.954C247.493 299.19 247.375 298.315 247.375 297.327C247.375 296.339 247.493 295.469 247.729 294.717C247.965 293.964 248.296 293.33 248.723 292.814C249.16 292.297 249.682 291.91 250.289 291.652C250.906 291.382 251.597 291.248 252.36 291.248C253.112 291.248 253.797 291.382 254.414 291.652C255.032 291.91 255.554 292.297 255.98 292.814C256.418 293.33 256.755 293.964 256.991 294.717C257.226 295.469 257.344 296.339 257.344 297.327C257.344 298.315 257.226 299.19 256.991 299.954C256.755 300.706 256.418 301.34 255.98 301.856C255.554 302.362 255.032 302.749 254.414 303.018C253.797 303.277 253.112 303.406 252.36 303.406ZM252.36 302.143C252.865 302.143 253.331 302.053 253.758 301.873C254.184 301.694 254.549 301.435 254.852 301.099C255.166 300.762 255.408 300.358 255.576 299.886C255.745 299.415 255.829 298.887 255.829 298.303V296.35C255.829 295.766 255.745 295.239 255.576 294.767C255.408 294.296 255.166 293.891 254.852 293.555C254.549 293.218 254.184 292.96 253.758 292.78C253.331 292.6 252.865 292.511 252.36 292.511C251.855 292.511 251.389 292.6 250.962 292.78C250.536 292.96 250.165 293.218 249.851 293.555C249.548 293.891 249.312 294.296 249.144 294.767C248.975 295.239 248.891 295.766 248.891 296.35V298.303C248.891 298.887 248.975 299.415 249.144 299.886C249.312 300.358 249.548 300.762 249.851 301.099C250.165 301.435 250.536 301.694 250.962 301.873C251.389 302.053 251.855 302.143 252.36 302.143ZM266.118 303.204V291.45H267.532V301.958H272.534V303.204H266.118Z" fill="white"/>
</svg>
